<svg
  width="20"
  height="20"
  viewBox="0 0 20 20"
  fill="none"
  xmlns="http://www.w3.org/2000/svg"
>
  <path
    d="M12.9833 9.99993C12.9833 11.6499 11.65 12.9833 10 12.9833C8.35 12.9833 7.01666 11.6499 7.01666 9.99993C7.01666 8.34993 8.35 7.0166 10 7.0166C11.65 7.0166 12.9833 8.34993 12.9833 9.99993Z"
    stroke="#B3B3B3"
    stroke-width="1.5"
    stroke-linecap="round"
    stroke-linejoin="round"
  />
  <path
    d="M9.99987 16.8915C12.9415 16.8915 15.6832 15.1582 17.5915 12.1582C18.3415 10.9832 18.3415 9.00819 17.5915 7.83319C15.6832 4.83319 12.9415 3.09985 9.99987 3.09985C7.0582 3.09985 4.31654 4.83319 2.4082 7.83319C1.6582 9.00819 1.6582 10.9832 2.4082 12.1582C4.31654 15.1582 7.0582 16.8915 9.99987 16.8915Z"
    stroke="#B3B3B3"
    stroke-width="1.5"
    stroke-linecap="round"
    stroke-linejoin="round"
  />
</svg>
