<svg width="32" height="32" viewBox="0 0 32 32" fill="none" xmlns="http://www.w3.org/2000/svg">
  <g clip-path="url(#clip0_228_169)">
    <path d="M14.0071 18.9974L19.2117 15.9999L14.0071 13.0024V18.9974Z" fill="#38B6C2" />
    <path
      d="M16 0C7.16481 0 0 7.16481 0 16C0 24.8352 7.16481 32 16 32C24.8352 32 32 24.8352 32 16C32 7.16481 24.8352 0 16 0ZM25.9975 16.0164C25.9975 16.0164 25.9975 19.2612 25.5859 20.8259C25.3552 21.6824 24.6799 22.3577 23.8234 22.5881C22.2589 23 16 23 16 23C16 23 9.75756 23 8.1765 22.5718C7.32006 22.3413 6.64475 21.6658 6.41406 20.8093C6.00219 19.2612 6.00219 16 6.00219 16C6.00219 16 6.00219 12.7554 6.41406 11.1906C6.64456 10.3343 7.33644 9.64231 8.17656 9.41187C9.74113 9 16 9 16 9C16 9 22.2587 9 23.8235 9.42825C24.6799 9.65869 25.3552 10.3342 25.5859 11.1907C26.0142 12.7554 25.9976 16.0163 25.9976 16.0163L25.9975 16.0164Z"
      fill="#38B6C2" />
  </g>
  <defs>
    <clipPath id="clip0_228_169">
      <rect width="32" height="32" fill="white" />
    </clipPath>
  </defs>
</svg>