<svg width="32" height="32" viewBox="0 0 32 32" fill="none" xmlns="http://www.w3.org/2000/svg">
  <g clip-path="url(#clip0_228_161)">
    <path
      d="M16 19.2812C17.8122 19.2812 19.2812 17.8122 19.2812 16C19.2812 14.1878 17.8122 12.7188 16 12.7188C14.1878 12.7188 12.7188 14.1878 12.7188 16C12.7188 17.8122 14.1878 19.2812 16 19.2812Z"
      fill="#38B6C2" />
    <path
      d="M16 0.375C7.37056 0.375 0.375 7.37056 0.375 16C0.375 24.6294 7.37056 31.625 16 31.625C24.6294 31.625 31.625 24.6294 31.625 16C31.625 7.37056 24.6294 0.375 16 0.375ZM25.6536 19.9713C25.5786 21.4568 25.1612 22.9216 24.0786 23.9927C22.9856 25.0739 21.5138 25.4768 20.0139 25.5511H11.9861C10.4861 25.4768 9.0145 25.0742 7.92144 23.9927C6.83881 22.9216 6.42144 21.4568 6.34644 19.9713V12.0288C6.42144 10.5433 6.83887 9.07837 7.92144 8.00725C9.0145 6.926 10.4863 6.52312 11.9861 6.44894H20.0139C21.5139 6.52312 22.9855 6.92581 24.0786 8.00725C25.1612 9.07837 25.5786 10.5433 25.6536 12.0288L25.6536 19.9713Z"
      fill="#38B6C2" />
    <path
      d="M19.9125 8.25872C17.9571 8.2051 14.0433 8.2051 12.088 8.25872C11.0704 8.28666 9.91685 8.53997 9.19185 9.31435C8.43847 10.1193 8.15379 11.0918 8.12491 12.1797C8.07416 14.0892 8.12491 19.8205 8.12491 19.8205C8.15797 20.9083 8.43847 21.8809 9.19185 22.6859C9.91685 23.4605 11.0704 23.7135 12.088 23.7415C14.0433 23.7951 17.9571 23.7951 19.9125 23.7415C20.93 23.7135 22.0836 23.4602 22.8086 22.6859C23.562 21.8809 23.8467 20.9084 23.8755 19.8205V12.1797C23.8467 11.0918 23.562 10.1193 22.8086 9.31435C22.0833 8.53972 20.9298 8.28666 19.9125 8.25872ZM16 21.086C14.9941 21.086 14.0108 20.7878 13.1744 20.2289C12.338 19.6701 11.6861 18.8757 11.3012 17.9464C10.9162 17.0171 10.8155 15.9945 11.0118 15.0079C11.208 14.0213 11.6924 13.1151 12.4037 12.4038C13.115 11.6925 14.0212 11.2081 15.0078 11.0119C15.9943 10.8156 17.0169 10.9164 17.9463 11.3013C18.8756 11.6862 19.6699 12.3381 20.2288 13.1745C20.7876 14.0109 21.0859 14.9942 21.0859 16.0001C21.0859 17.349 20.5501 18.6426 19.5963 19.5964C18.6425 20.5502 17.3488 21.086 16 21.086ZM21.1075 11.964C20.9064 11.9639 20.7097 11.9042 20.5425 11.7924C20.3752 11.6806 20.2449 11.5217 20.168 11.3359C20.091 11.15 20.0709 10.9455 20.1102 10.7482C20.1495 10.5509 20.2463 10.3697 20.3886 10.2274C20.5309 10.0852 20.7121 9.98835 20.9094 9.94913C21.1067 9.9099 21.3113 9.93006 21.4971 10.0071C21.683 10.084 21.8418 10.2144 21.9536 10.3817C22.0653 10.549 22.125 10.7456 22.125 10.9468C22.125 11.0804 22.0987 11.2127 22.0475 11.3361C21.9964 11.4595 21.9214 11.5717 21.827 11.6661C21.7325 11.7606 21.6203 11.8355 21.4969 11.8866C21.3734 11.9377 21.2411 11.964 21.1075 11.964Z"
      fill="#38B6C2" />
  </g>
  <defs>
    <clipPath id="clip0_228_161">
      <rect width="32" height="32" fill="white" />
    </clipPath>
  </defs>
</svg>